<svg xmlns="http://www.w3.org/2000/svg" viewBox="0 0 32 32">
<rect width="32" height="32" rx="7" fill="#080808"/>
<g transform="translate(6,6) scale(2.5,2)"><rect x="0" y="0" width="1.02" height="1.02" fill="#ee2a18"/><rect x="1" y="0" width="1.02" height="1.02" fill="#ee2a18"/><rect x="6" y="0" width="1.02" height="1.02" fill="#ee2a18"/><rect x="7" y="0" width="1.02" height="1.02" fill="#ee2a18"/><rect x="0" y="1" width="1.02" height="1.02" fill="#ee2a18"/><rect x="1" y="1" width="1.02" height="1.02" fill="#ee2a18"/><rect x="2" y="1" width="1.02" height="1.02" fill="#ee2a18"/><rect x="6" y="1" width="1.02" height="1.02" fill="#ee2a18"/><rect x="7" y="1" width="1.02" height="1.02" fill="#ee2a18"/><rect x="0" y="2" width="1.02" height="1.02" fill="#ee2a18"/><rect x="1" y="2" width="1.02" height="1.02" fill="#ee2a18"/><rect x="2" y="2" width="1.02" height="1.02" fill="#ee2a18"/><rect x="3" y="2" width="1.02" height="1.02" fill="#ee2a18"/><rect x="6" y="2" width="1.02" height="1.02" fill="#ee2a18"/><rect x="7" y="2" width="1.02" height="1.02" fill="#ee2a18"/><rect x="0" y="3" width="1.02" height="1.02" fill="#ee2a18"/><rect x="1" y="3" width="1.02" height="1.02" fill="#ee2a18"/><rect x="3" y="3" width="1.02" height="1.02" fill="#ee2a18"/><rect x="4" y="3" width="1.02" height="1.02" fill="#ee2a18"/><rect x="6" y="3" width="1.02" height="1.02" fill="#ee2a18"/><rect x="7" y="3" width="1.02" height="1.02" fill="#ee2a18"/><rect x="0" y="4" width="1.02" height="1.02" fill="#ee2a18"/><rect x="1" y="4" width="1.02" height="1.02" fill="#ee2a18"/><rect x="3" y="4" width="1.02" height="1.02" fill="#ee2a18"/><rect x="4" y="4" width="1.02" height="1.02" fill="#ee2a18"/><rect x="6" y="4" width="1.02" height="1.02" fill="#ee2a18"/><rect x="7" y="4" width="1.02" height="1.02" fill="#ee2a18"/><rect x="0" y="5" width="1.02" height="1.02" fill="#ee2a18"/><rect x="1" y="5" width="1.02" height="1.02" fill="#ee2a18"/><rect x="4" y="5" width="1.02" height="1.02" fill="#ee2a18"/><rect x="5" y="5" width="1.02" height="1.02" fill="#ee2a18"/><rect x="6" y="5" width="1.02" height="1.02" fill="#ee2a18"/><rect x="7" y="5" width="1.02" height="1.02" fill="#ee2a18"/><rect x="0" y="6" width="1.02" height="1.02" fill="#ee2a18"/><rect x="1" y="6" width="1.02" height="1.02" fill="#ee2a18"/><rect x="4" y="6" width="1.02" height="1.02" fill="#ee2a18"/><rect x="5" y="6" width="1.02" height="1.02" fill="#ee2a18"/><rect x="6" y="6" width="1.02" height="1.02" fill="#ee2a18"/><rect x="7" y="6" width="1.02" height="1.02" fill="#ee2a18"/><rect x="0" y="7" width="1.02" height="1.02" fill="#ee2a18"/><rect x="1" y="7" width="1.02" height="1.02" fill="#ee2a18"/><rect x="5" y="7" width="1.02" height="1.02" fill="#ee2a18"/><rect x="6" y="7" width="1.02" height="1.02" fill="#ee2a18"/><rect x="7" y="7" width="1.02" height="1.02" fill="#ee2a18"/><rect x="0" y="8" width="1.02" height="1.02" fill="#ee2a18"/><rect x="1" y="8" width="1.02" height="1.02" fill="#ee2a18"/><rect x="6" y="8" width="1.02" height="1.02" fill="#ee2a18"/><rect x="7" y="8" width="1.02" height="1.02" fill="#ee2a18"/><rect x="0" y="9" width="1.02" height="1.02" fill="#ee2a18"/><rect x="1" y="9" width="1.02" height="1.02" fill="#ee2a18"/><rect x="6" y="9" width="1.02" height="1.02" fill="#ee2a18"/><rect x="7" y="9" width="1.02" height="1.02" fill="#ee2a18"/></g>
</svg>