<svg xmlns="http://www.w3.org/2000/svg" width="1280" height="340" viewBox="0 0 1280 340" font-family="ui-monospace, 'JetBrains Mono', 'SFMono-Regular', Consolas, monospace">
  <defs>
    <filter id="glow" x="-40%" y="-40%" width="180%" height="180%">
      <feGaussianBlur stdDeviation="6" result="b"/>
      <feMerge><feMergeNode in="b"/><feMergeNode in="SourceGraphic"/></feMerge>
    </filter>
  </defs>

  <rect width="1280" height="340" fill="#050505"/>
  <line x1="0" y1="0" x2="0" y2="340" stroke="rgba(236,232,227,0.04)" stroke-width="1"/><line x1="40" y1="0" x2="40" y2="340" stroke="rgba(236,232,227,0.04)" stroke-width="1"/><line x1="80" y1="0" x2="80" y2="340" stroke="rgba(236,232,227,0.04)" stroke-width="1"/><line x1="120" y1="0" x2="120" y2="340" stroke="rgba(236,232,227,0.04)" stroke-width="1"/><line x1="160" y1="0" x2="160" y2="340" stroke="rgba(236,232,227,0.04)" stroke-width="1"/><line x1="200" y1="0" x2="200" y2="340" stroke="rgba(236,232,227,0.04)" stroke-width="1"/><line x1="240" y1="0" x2="240" y2="340" stroke="rgba(236,232,227,0.04)" stroke-width="1"/><line x1="280" y1="0" x2="280" y2="340" stroke="rgba(236,232,227,0.04)" stroke-width="1"/><line x1="320" y1="0" x2="320" y2="340" stroke="rgba(236,232,227,0.04)" stroke-width="1"/><line x1="360" y1="0" x2="360" y2="340" stroke="rgba(236,232,227,0.04)" stroke-width="1"/><line x1="400" y1="0" x2="400" y2="340" stroke="rgba(236,232,227,0.04)" stroke-width="1"/><line x1="440" y1="0" x2="440" y2="340" stroke="rgba(236,232,227,0.04)" stroke-width="1"/><line x1="480" y1="0" x2="480" y2="340" stroke="rgba(236,232,227,0.04)" stroke-width="1"/><line x1="520" y1="0" x2="520" y2="340" stroke="rgba(236,232,227,0.04)" stroke-width="1"/><line x1="560" y1="0" x2="560" y2="340" stroke="rgba(236,232,227,0.04)" stroke-width="1"/><line x1="600" y1="0" x2="600" y2="340" stroke="rgba(236,232,227,0.04)" stroke-width="1"/><line x1="640" y1="0" x2="640" y2="340" stroke="rgba(236,232,227,0.04)" stroke-width="1"/><line x1="680" y1="0" x2="680" y2="340" stroke="rgba(236,232,227,0.04)" stroke-width="1"/><line x1="720" y1="0" x2="720" y2="340" stroke="rgba(236,232,227,0.04)" stroke-width="1"/><line x1="760" y1="0" x2="760" y2="340" stroke="rgba(236,232,227,0.04)" stroke-width="1"/><line x1="800" y1="0" x2="800" y2="340" stroke="rgba(236,232,227,0.04)" stroke-width="1"/><line x1="840" y1="0" x2="840" y2="340" stroke="rgba(236,232,227,0.04)" stroke-width="1"/><line x1="880" y1="0" x2="880" y2="340" stroke="rgba(236,232,227,0.04)" stroke-width="1"/><line x1="920" y1="0" x2="920" y2="340" stroke="rgba(236,232,227,0.04)" stroke-width="1"/><line x1="960" y1="0" x2="960" y2="340" stroke="rgba(236,232,227,0.04)" stroke-width="1"/><line x1="1000" y1="0" x2="1000" y2="340" stroke="rgba(236,232,227,0.04)" stroke-width="1"/><line x1="1040" y1="0" x2="1040" y2="340" stroke="rgba(236,232,227,0.04)" stroke-width="1"/><line x1="1080" y1="0" x2="1080" y2="340" stroke="rgba(236,232,227,0.04)" stroke-width="1"/><line x1="1120" y1="0" x2="1120" y2="340" stroke="rgba(236,232,227,0.04)" stroke-width="1"/><line x1="1160" y1="0" x2="1160" y2="340" stroke="rgba(236,232,227,0.04)" stroke-width="1"/><line x1="1200" y1="0" x2="1200" y2="340" stroke="rgba(236,232,227,0.04)" stroke-width="1"/><line x1="1240" y1="0" x2="1240" y2="340" stroke="rgba(236,232,227,0.04)" stroke-width="1"/><line x1="1280" y1="0" x2="1280" y2="340" stroke="rgba(236,232,227,0.04)" stroke-width="1"/><line x1="0" y1="0" x2="1280" y2="0" stroke="rgba(236,232,227,0.04)" stroke-width="1"/><line x1="0" y1="40" x2="1280" y2="40" stroke="rgba(236,232,227,0.04)" stroke-width="1"/><line x1="0" y1="80" x2="1280" y2="80" stroke="rgba(236,232,227,0.04)" stroke-width="1"/><line x1="0" y1="120" x2="1280" y2="120" stroke="rgba(236,232,227,0.04)" stroke-width="1"/><line x1="0" y1="160" x2="1280" y2="160" stroke="rgba(236,232,227,0.04)" stroke-width="1"/><line x1="0" y1="200" x2="1280" y2="200" stroke="rgba(236,232,227,0.04)" stroke-width="1"/><line x1="0" y1="240" x2="1280" y2="240" stroke="rgba(236,232,227,0.04)" stroke-width="1"/><line x1="0" y1="280" x2="1280" y2="280" stroke="rgba(236,232,227,0.04)" stroke-width="1"/><line x1="0" y1="320" x2="1280" y2="320" stroke="rgba(236,232,227,0.04)" stroke-width="1"/>
  <rect x="0" y="0" width="1280" height="3" fill="#dd2316"/>

  <!-- window frame -->
  <rect x="40" y="28" width="1200" height="272" rx="10" fill="rgba(8,8,8,0.6)" stroke="rgba(221,35,22,0.28)" stroke-width="1"/>

  <!-- titlebar dots -->
  <circle cx="66" cy="48" r="5" fill="#dd2316"/>
  <circle cx="84" cy="48" r="5" fill="rgba(221,35,22,0.55)"/>
  <circle cx="102" cy="48" r="5" fill="rgba(221,35,22,0.28)"/>
  <text x="122" y="52" font-size="13" fill="#6b655f">~/nipun.os</text>
  <text x="1220" y="52" font-size="12" fill="#6b655f" text-anchor="end">v1</text>

  <!-- wordmark -->
  <g transform="translate(217,128)" filter="url(#glow)"><rect x="0" y="0" width="18" height="18" fill="#dd2316"/><rect x="72" y="0" width="18" height="18" fill="#dd2316"/><rect x="0" y="18" width="18" height="18" fill="#dd2316"/><rect x="18" y="18" width="18" height="18" fill="#dd2316"/><rect x="72" y="18" width="18" height="18" fill="#dd2316"/><rect x="0" y="36" width="18" height="18" fill="#dd2316"/><rect x="36" y="36" width="18" height="18" fill="#dd2316"/><rect x="72" y="36" width="18" height="18" fill="#dd2316"/><rect x="0" y="54" width="18" height="18" fill="#dd2316"/><rect x="54" y="54" width="18" height="18" fill="#dd2316"/><rect x="72" y="54" width="18" height="18" fill="#dd2316"/><rect x="0" y="72" width="18" height="18" fill="#dd2316"/><rect x="72" y="72" width="18" height="18" fill="#dd2316"/><rect x="0" y="90" width="18" height="18" fill="#dd2316"/><rect x="72" y="90" width="18" height="18" fill="#dd2316"/><rect x="0" y="108" width="18" height="18" fill="#dd2316"/><rect x="72" y="108" width="18" height="18" fill="#dd2316"/><rect x="108" y="0" width="18" height="18" fill="#dd2316"/><rect x="126" y="0" width="18" height="18" fill="#dd2316"/><rect x="144" y="0" width="18" height="18" fill="#dd2316"/><rect x="162" y="0" width="18" height="18" fill="#dd2316"/><rect x="180" y="0" width="18" height="18" fill="#dd2316"/><rect x="144" y="18" width="18" height="18" fill="#dd2316"/><rect x="144" y="36" width="18" height="18" fill="#dd2316"/><rect x="144" y="54" width="18" height="18" fill="#dd2316"/><rect x="144" y="72" width="18" height="18" fill="#dd2316"/><rect x="144" y="90" width="18" height="18" fill="#dd2316"/><rect x="108" y="108" width="18" height="18" fill="#dd2316"/><rect x="126" y="108" width="18" height="18" fill="#dd2316"/><rect x="144" y="108" width="18" height="18" fill="#dd2316"/><rect x="162" y="108" width="18" height="18" fill="#dd2316"/><rect x="180" y="108" width="18" height="18" fill="#dd2316"/><rect x="216" y="0" width="18" height="18" fill="#dd2316"/><rect x="234" y="0" width="18" height="18" fill="#dd2316"/><rect x="252" y="0" width="18" height="18" fill="#dd2316"/><rect x="270" y="0" width="18" height="18" fill="#dd2316"/><rect x="216" y="18" width="18" height="18" fill="#dd2316"/><rect x="288" y="18" width="18" height="18" fill="#dd2316"/><rect x="216" y="36" width="18" height="18" fill="#dd2316"/><rect x="288" y="36" width="18" height="18" fill="#dd2316"/><rect x="216" y="54" width="18" height="18" fill="#dd2316"/><rect x="234" y="54" width="18" height="18" fill="#dd2316"/><rect x="252" y="54" width="18" height="18" fill="#dd2316"/><rect x="270" y="54" width="18" height="18" fill="#dd2316"/><rect x="216" y="72" width="18" height="18" fill="#dd2316"/><rect x="216" y="90" width="18" height="18" fill="#dd2316"/><rect x="216" y="108" width="18" height="18" fill="#dd2316"/><rect x="324" y="0" width="18" height="18" fill="#dd2316"/><rect x="396" y="0" width="18" height="18" fill="#dd2316"/><rect x="324" y="18" width="18" height="18" fill="#dd2316"/><rect x="396" y="18" width="18" height="18" fill="#dd2316"/><rect x="324" y="36" width="18" height="18" fill="#dd2316"/><rect x="396" y="36" width="18" height="18" fill="#dd2316"/><rect x="324" y="54" width="18" height="18" fill="#dd2316"/><rect x="396" y="54" width="18" height="18" fill="#dd2316"/><rect x="324" y="72" width="18" height="18" fill="#dd2316"/><rect x="396" y="72" width="18" height="18" fill="#dd2316"/><rect x="324" y="90" width="18" height="18" fill="#dd2316"/><rect x="396" y="90" width="18" height="18" fill="#dd2316"/><rect x="342" y="108" width="18" height="18" fill="#dd2316"/><rect x="360" y="108" width="18" height="18" fill="#dd2316"/><rect x="378" y="108" width="18" height="18" fill="#dd2316"/><rect x="432" y="0" width="18" height="18" fill="#dd2316"/><rect x="504" y="0" width="18" height="18" fill="#dd2316"/><rect x="432" y="18" width="18" height="18" fill="#dd2316"/><rect x="450" y="18" width="18" height="18" fill="#dd2316"/><rect x="504" y="18" width="18" height="18" fill="#dd2316"/><rect x="432" y="36" width="18" height="18" fill="#dd2316"/><rect x="468" y="36" width="18" height="18" fill="#dd2316"/><rect x="504" y="36" width="18" height="18" fill="#dd2316"/><rect x="432" y="54" width="18" height="18" fill="#dd2316"/><rect x="486" y="54" width="18" height="18" fill="#dd2316"/><rect x="504" y="54" width="18" height="18" fill="#dd2316"/><rect x="432" y="72" width="18" height="18" fill="#dd2316"/><rect x="504" y="72" width="18" height="18" fill="#dd2316"/><rect x="432" y="90" width="18" height="18" fill="#dd2316"/><rect x="504" y="90" width="18" height="18" fill="#dd2316"/><rect x="432" y="108" width="18" height="18" fill="#dd2316"/><rect x="504" y="108" width="18" height="18" fill="#dd2316"/><rect x="558" y="90" width="18" height="18" fill="#dd2316"/><rect x="576" y="90" width="18" height="18" fill="#dd2316"/><rect x="558" y="108" width="18" height="18" fill="#dd2316"/><rect x="576" y="108" width="18" height="18" fill="#dd2316"/><rect x="666" y="0" width="18" height="18" fill="#dd2316"/><rect x="684" y="0" width="18" height="18" fill="#dd2316"/><rect x="702" y="0" width="18" height="18" fill="#dd2316"/><rect x="648" y="18" width="18" height="18" fill="#dd2316"/><rect x="720" y="18" width="18" height="18" fill="#dd2316"/><rect x="648" y="36" width="18" height="18" fill="#dd2316"/><rect x="720" y="36" width="18" height="18" fill="#dd2316"/><rect x="648" y="54" width="18" height="18" fill="#dd2316"/><rect x="720" y="54" width="18" height="18" fill="#dd2316"/><rect x="648" y="72" width="18" height="18" fill="#dd2316"/><rect x="720" y="72" width="18" height="18" fill="#dd2316"/><rect x="648" y="90" width="18" height="18" fill="#dd2316"/><rect x="720" y="90" width="18" height="18" fill="#dd2316"/><rect x="666" y="108" width="18" height="18" fill="#dd2316"/><rect x="684" y="108" width="18" height="18" fill="#dd2316"/><rect x="702" y="108" width="18" height="18" fill="#dd2316"/><rect x="774" y="0" width="18" height="18" fill="#dd2316"/><rect x="792" y="0" width="18" height="18" fill="#dd2316"/><rect x="810" y="0" width="18" height="18" fill="#dd2316"/><rect x="828" y="0" width="18" height="18" fill="#dd2316"/><rect x="756" y="18" width="18" height="18" fill="#dd2316"/><rect x="756" y="36" width="18" height="18" fill="#dd2316"/><rect x="774" y="54" width="18" height="18" fill="#dd2316"/><rect x="792" y="54" width="18" height="18" fill="#dd2316"/><rect x="810" y="54" width="18" height="18" fill="#dd2316"/><rect x="828" y="72" width="18" height="18" fill="#dd2316"/><rect x="828" y="90" width="18" height="18" fill="#dd2316"/><rect x="756" y="108" width="18" height="18" fill="#dd2316"/><rect x="774" y="108" width="18" height="18" fill="#dd2316"/><rect x="792" y="108" width="18" height="18" fill="#dd2316"/><rect x="810" y="108" width="18" height="18" fill="#dd2316"/></g>
  <!-- blinking cursor -->
  <rect x="1077" y="146" width="18" height="90" fill="#ff3324">
    <animate attributeName="opacity" values="1;1;0;0" dur="1.1s" repeatCount="indefinite"/>
  </rect>

  <!-- tagline -->
  <text x="640" y="278" font-size="17" fill="#ece8e3" text-anchor="middle" letter-spacing="2">the terminal portfolio</text>
  <text x="640" y="302" font-size="12" fill="#6b655f" text-anchor="middle" letter-spacing="3">AI ENGINEER · BUILDER · nipun.space</text>

  <text x="60" y="326" font-size="11" fill="#4f4a45">001</text>
  <text x="1220" y="326" font-size="11" fill="#4f4a45" text-anchor="end">x:0.42 y:0.88</text>
</svg>